# xmcd
#
# Track frame offsets:
#	150
#	20503
#	36671
#	56834
#	82335
#	108147
#	129690
#	149003
#	169370
#	188511
#	211590
#	228310
#	249057
#	267647
#
# Disc length: 3761 seconds
#
# Revision: 1
# Processed by: cddbd v1.5.2PL0 Copyright (c) Steve Scherf et al.
# Submitted via: audiograbber 1.83.01
#
DISCID=cd0eaf0e
DTITLE=Carol Noonan - Waltzing's for Dreamers
DYEAR=2010
DGENRE=Country
TTITLE0=Waltzing's for Dreamers
TTITLE1=Emily
TTITLE2=Bread and Wine
TTITLE3=One I Love
TTITLE4=Galway in Graceland
TTITLE5=Boodby
TTITLE6=Donw Where the Drunkard's Roll
TTITLE7=Did you ever
TTITLE8=In the Still of the Night
TTITLE9=Knuckleball Suite
TTITLE10=Still miss someone
TTITLE11=Barn Song
TTITLE12=Comes in Waves
TTITLE13=Unkown Thing
EXTD=
EXTT0=
EXTT1=
EXTT2=
EXTT3=
EXTT4=
EXTT5=
EXTT6=
EXTT7=
EXTT8=
EXTT9=
EXTT10=
EXTT11=
EXTT12=
EXTT13=
PLAYORDER=
